<svg version="1.1" id="Layer_1" xmlns="http://www.w3.org/2000/svg" xmlns:xlink="http://www.w3.org/1999/xlink" x="0px" y="0px"
	 width="100%" viewBox="0 0 976 976" enable-background="new 0 0 976 976" xml:space="preserve">
<path fill="#000000" opacity="1.000000" stroke="none" 
	d="
M234.066315,535.960205 
	C230.644226,533.542786 227.586624,531.219910 224.368729,529.145691 
	C221.253433,527.137634 220.779419,525.362610 223.001480,521.943665 
	C248.876633,482.131042 274.562103,442.195129 300.295624,402.290405 
	C309.234711,388.428650 318.197845,374.582245 327.076477,360.681824 
	C328.703613,358.134338 330.403076,356.477539 333.806702,356.586090 
	C369.142395,357.713165 404.432678,355.778717 439.739197,354.882812 
	C441.468597,354.838898 443.367035,354.191711 445.034210,355.592255 
	C444.771301,358.073669 442.486176,358.515778 440.974731,359.568542 
	C429.168060,367.792175 417.753174,376.446289 409.784210,388.727386 
	C406.294800,394.104980 403.885529,399.950684 404.785583,406.597412 
	C405.881165,414.688049 411.260010,419.549988 417.932129,423.150482 
	C430.687592,430.033630 444.532654,431.401306 458.691467,430.419830 
	C483.420532,428.705627 506.753998,421.478210 529.339172,411.705841 
	C534.314026,409.553284 537.529053,410.004028 541.622986,413.827454 
	C593.011230,461.819458 644.597473,509.599426 696.126709,557.440491 
	C701.010376,561.974609 705.642700,566.806885 710.767517,571.046509 
	C716.476501,575.769409 718.244568,581.878784 718.160217,588.792725 
	C718.092163,594.366333 716.709656,599.669922 713.852966,604.524475 
	C706.697144,616.685303 689.921509,619.942322 678.843628,611.051270 
	C645.967163,584.664856 613.193054,558.150940 580.366333,531.702576 
	C571.413696,524.489502 562.446594,517.293701 553.428162,510.163147 
	C548.463745,506.237976 544.288940,506.106262 541.577820,509.571350 
	C538.828369,513.085449 539.886841,517.251892 544.650330,521.092957 
	C583.428528,552.362366 622.222229,583.612610 661.009521,614.870728 
	C662.695923,616.229736 664.372803,617.600769 666.042847,618.979736 
	C673.803040,625.387268 675.974426,635.392273 672.186340,647.256897 
	C669.081177,656.982361 662.686829,661.432739 651.654175,662.444702 
	C642.413818,663.292236 634.998718,661.083618 627.489075,654.874817 
	C592.305725,625.786011 556.566345,597.369568 520.986938,568.760986 
	C518.569885,566.817444 516.071228,564.549072 512.458618,566.042725 
	C506.709686,568.419678 505.864746,574.567688 510.970398,578.794556 
	C521.623169,587.613831 532.405151,596.277710 543.174133,604.955811 
	C565.741821,623.141846 588.335388,641.295898 610.918457,659.462830 
	C614.034241,661.969299 616.965515,664.763306 620.311401,666.911499 
	C625.083374,669.975281 625.845459,673.589355 623.803467,678.741638 
	C621.390137,684.830750 618.864990,690.715698 614.269897,695.547729 
	C610.115417,699.916321 604.939331,702.035095 599.116455,702.214722 
	C588.287109,702.549011 578.323853,699.614685 569.807007,692.776306 
	C542.133972,670.556519 514.543640,648.233826 486.910248,625.964661 
	C485.356201,624.712280 483.780762,623.453308 482.077209,622.426453 
	C478.640137,620.354858 475.503021,621.421509 473.138062,624.172485 
	C470.795685,626.897278 470.961914,630.053833 473.286835,632.837219 
	C474.340027,634.098022 475.703522,635.116333 476.995911,636.158203 
	C503.976868,657.908875 530.922485,679.704041 558.015564,701.314270 
	C561.318848,703.949036 562.195740,706.700562 560.903503,710.380066 
	C559.580627,714.146606 558.357361,717.990051 556.589050,721.550842 
	C549.062866,736.706604 535.104980,741.835205 518.712952,735.907593 
	C510.559509,732.959229 503.907104,727.644043 496.971436,722.775146 
	C484.290649,713.873291 471.768555,704.744995 459.061340,695.881592 
	C456.129730,693.836853 455.840179,692.124512 457.412292,688.909119 
	C466.342316,670.644836 458.361389,650.669678 439.329681,643.550232 
	C435.901672,642.267822 434.613861,641.207092 436.015808,637.181763 
	C442.046570,619.865723 433.477112,602.079468 416.119476,596.111877 
	C411.275848,594.446594 410.340485,592.650330 411.498535,587.617004 
	C414.307007,575.410461 410.531036,564.756592 400.997955,556.680847 
	C391.156036,548.343506 379.840179,546.789551 367.723907,551.211548 
	C366.316589,551.725159 364.938385,552.318237 363.532776,552.836792 
	C363.236725,552.946045 362.879700,552.890015 362.544739,552.910889 
	C360.707855,552.090698 360.783173,550.215027 360.276642,548.695129 
	C353.096344,527.148804 327.143341,519.021667 309.425873,533.330017 
	C298.688965,542.000916 288.778076,551.709961 278.692596,561.162231 
	C275.921844,563.758972 273.896118,564.353699 270.609680,561.954102 
	C258.634125,553.210083 246.459976,544.738037 234.066315,535.960205 
z"/>
<path fill="#000000" opacity="1.000000" stroke="none" 
	d="
M331.814484,309.598694 
	C334.616821,317.586365 333.457550,324.564087 329.069550,331.348999 
	C282.493652,403.367065 235.996674,475.436218 189.476486,547.490356 
	C181.582596,559.717041 169.651749,562.735046 157.205322,555.263977 
	C128.933975,538.293945 100.734413,521.203491 72.573708,504.050293 
	C62.002605,497.611237 58.982384,484.480713 65.692108,473.473022 
	C72.711945,461.956543 80.120239,450.675079 87.443695,439.345764 
	C111.492752,402.142059 135.598343,364.974915 159.646835,327.770874 
	C175.287521,303.574005 190.841568,279.321167 206.484009,255.125473 
	C214.156418,243.257782 226.373947,240.499222 238.520981,247.845703 
	C266.307526,264.650909 294.065216,281.503754 321.854034,298.305176 
	C326.255188,300.966156 329.846832,304.278717 331.814484,309.598694 
M262.228302,356.793243 
	C276.828217,348.137970 283.264923,332.837738 278.887024,317.194946 
	C274.939545,303.090088 260.438782,292.158600 246.069077,292.454895 
	C231.841599,292.748291 219.036316,301.684174 214.012817,314.824738 
	C209.213165,327.379761 212.943390,342.811920 222.978226,351.915070 
	C233.523285,361.481079 248.402802,363.497375 262.228302,356.793243 
z"/>
<path fill="#000000" opacity="1.000000" stroke="none" 
	d="
M753.857910,487.081238 
	C727.363892,439.443268 701.039429,392.130127 674.714417,344.817230 
	C670.826660,337.829956 666.839294,330.896057 663.068726,323.846100 
	C656.390320,311.359131 659.926636,299.164246 672.524963,292.526550 
	C701.411316,277.307312 730.369324,262.221497 759.409668,247.298279 
	C772.205200,240.722961 783.751343,244.358017 790.802185,256.982758 
	C818.175781,305.995880 845.436279,355.072205 872.750366,404.118561 
	C886.691345,429.151489 900.570068,454.219635 914.641724,479.178955 
	C924.014893,495.804291 920.660950,507.421265 903.674744,516.048950 
	C898.179260,518.840210 892.740417,521.742676 887.270508,524.584473 
	C864.802612,536.257385 842.398743,548.056213 819.837158,559.545227 
	C807.565125,565.794495 795.907959,562.219604 789.118958,550.242554 
	C777.288940,529.372375 765.710999,508.359314 753.857910,487.081238 
M727.395935,349.136475 
	C741.863770,357.339203 757.868408,355.537018 769.145081,344.435333 
	C780.242859,333.509766 782.795349,317.485474 775.567383,304.117371 
	C768.956177,291.889984 755.054871,284.686615 741.338989,286.381073 
	C727.027039,288.149170 715.715698,298.381805 712.177307,312.761871 
	C708.854126,326.267303 714.454712,340.052521 727.395935,349.136475 
z"/>
<path fill="#000000" opacity="1.000000" stroke="none" 
	d="
M667.451721,362.680359 
	C673.666748,370.909973 677.923157,379.974274 682.783203,388.664612 
	C707.404785,432.691010 731.736084,476.879700 756.344177,520.913696 
	C758.525146,524.816406 757.975403,527.001587 754.686768,529.704468 
	C744.141357,538.371887 733.722168,547.199097 723.445312,556.183228 
	C720.297913,558.934753 718.302490,558.905396 715.158386,555.964111 
	C670.767700,514.436340 626.255981,473.037811 581.747375,431.636292 
	C569.431641,420.180359 556.948486,408.903168 544.712830,397.363098 
	C540.650940,393.532104 536.846619,392.944885 531.665466,395.261383 
	C511.706543,404.185181 491.187073,411.478760 469.445862,414.791992 
	C455.628387,416.897644 441.888092,417.231354 428.574677,412.134399 
	C417.712738,407.976044 416.421051,403.674652 423.340912,394.290588 
	C432.107025,382.402802 443.971985,374.048798 456.416565,366.521545 
	C476.088287,354.622894 496.779846,345.221527 519.876953,342.323578 
	C527.978943,341.307037 535.562744,342.531158 542.677246,347.362610 
	C563.026672,361.181946 585.711609,368.025848 610.272766,368.854828 
	C628.190491,369.459625 645.842041,367.811249 663.179626,363.122894 
	C664.447327,362.780060 665.797424,362.742126 667.451721,362.680359 
z"/>
<path fill="#000000" opacity="1.000000" stroke="none" 
	d="
M288.086670,654.240112 
	C286.675171,646.353271 288.784485,640.145081 294.452545,634.955627 
	C318.874084,612.596252 343.159210,590.087830 367.613739,567.764832 
	C375.085175,560.944641 386.732147,561.629944 393.267609,568.834351 
	C399.912018,576.158875 399.667664,587.516724 392.177246,594.476379 
	C370.116486,614.973938 347.871735,635.273376 325.702148,655.653809 
	C323.497894,657.680115 321.295044,659.708801 319.126434,661.773071 
	C308.316864,672.062378 293.537567,668.661072 288.086670,654.240112 
z"/>
<path fill="#000000" opacity="1.000000" stroke="none" 
	d="
M335.242828,666.345093 
	C354.497528,648.661804 373.485748,631.221741 392.532471,613.845764 
	C400.325409,606.736450 411.862244,606.870789 418.607574,613.995117 
	C425.517670,621.293457 425.042175,633.136414 417.199677,640.447937 
	C402.722809,653.944763 388.072144,667.255188 373.493805,680.643066 
	C369.695496,684.131226 365.984772,687.721130 362.080170,691.085876 
	C353.288086,698.662354 344.059021,699.061707 336.459656,692.347534 
	C329.263702,685.989746 328.704834,676.137878 335.242828,666.345093 
z"/>
<path fill="#000000" opacity="1.000000" stroke="none" 
	d="
M347.249268,561.571289 
	C346.487091,565.704346 344.840179,568.995850 342.107422,571.534729 
	C327.977478,584.662415 313.941650,597.900513 299.508667,610.688904 
	C292.034515,617.311462 282.275330,616.974854 275.399109,610.895020 
	C268.879211,605.130249 267.309814,594.971924 272.091003,587.734558 
	C275.141205,583.117432 279.614929,579.767395 283.628967,576.044373 
	C294.114777,566.318726 304.867096,556.875793 315.212128,547.004700 
	C321.544556,540.962280 328.492462,538.915466 336.619537,542.126282 
	C344.004913,545.044067 347.444427,551.507874 347.249268,561.571289 
z"/>
<path fill="#000000" opacity="1.000000" stroke="none" 
	d="
M435.387085,657.257568 
	C448.748016,664.300232 450.683868,678.851868 439.905609,688.719421 
	C428.982819,698.719299 418.084900,708.746582 407.122986,718.703369 
	C398.857452,726.211243 387.984924,726.048706 380.778748,718.418213 
	C373.625488,710.843750 374.081604,699.822266 382.216858,692.123169 
	C392.973297,681.943359 403.915833,671.958862 414.848145,661.966797 
	C420.637390,656.675415 427.222382,654.241333 435.387085,657.257568 
z"/>
<path fill="#000000" opacity="1.000000" stroke="none" 
	d="
M258.394348,311.495941 
	C266.661072,319.857513 267.873199,329.747101 261.935791,338.309753 
	C256.934723,345.522034 246.489883,348.423615 238.324066,344.869110 
	C227.648392,340.222076 223.260376,327.337463 228.885651,317.154999 
	C234.713104,306.606567 247.238831,304.080231 258.394348,311.495941 
z"/>
<path fill="#000000" opacity="1.000000" stroke="none" 
	d="
M725.733154,321.747803 
	C725.935181,309.996948 732.588806,301.984100 742.798950,300.734039 
	C752.782593,299.511719 761.626465,305.461304 764.356873,315.236938 
	C767.103699,325.071350 761.523987,335.832123 752.068787,338.935272 
	C741.662292,342.350616 730.880432,337.425781 727.140625,327.474792 
	C726.502686,325.777344 726.207703,323.950958 725.733154,321.747803 
z"/>
</svg>